PathFileType	4	(X/Y/Z)	7_2_69_p1_0-168_filt_butterworth.trc
DataRate	CameraRate	NumFrames	NumMarkers	Units	OrigDataRate	OrigDataStartFrame	OrigNumFrames
57.0	57.0	5	27	m	57.0	84	168
Frame#	Time	RHip			RKnee			RAnkle			RBigToe			RSmallToe			RHeel			LHip			LKnee			LAnkle			LBigToe			LSmallToe			LHeel			Neck			Head			Nose			RShoulder			RElbow			RWrist			RThumb			RIndex			RPinky			LShoulder			LElbow			LWrist			LThumb			LIndex			LPinky			
		X1	Y1	Z1	X2	Y2	Z2	X3	Y3	Z3	X4	Y4	Z4	X5	Y5	Z5	X6	Y6	Z6	X7	Y7	Z7	X8	Y8	Z8	X9	Y9	Z9	X10	Y10	Z10	X11	Y11	Z11	X12	Y12	Z12	X13	Y13	Z13	X14	Y14	Z14	X15	Y15	Z15	X16	Y16	Z16	X17	Y17	Z17	X18	Y18	Z18	X19	Y19	Z19	X20	Y20	Z20	X21	Y21	Z21	X22	Y22	Z22	X23	Y23	Z23	X24	Y24	Z24	X25	Y25	Z25	X26	Y26	Z26	X27	Y27	Z27	
84	1.4736842105263157	0.2905347104561851	0.2478772676325672	1.154948456122125	0.27901620804937816	0.2710084478237058	1.599049115259624	0.2663431908844394	0.24799970720489192	2.014754246312295	0.25652012568876753	0.08436620773483662	1.992314523403357	0.31272890318233154	0.09047854068743039	1.9824851360836158	0.24776529067256672	0.30599595736636354	2.0941671975675042	0.06669023506744183	0.2693149879711744	1.1911177401865163	0.08993369696701001	0.28010401188410583	1.6138308805854953	0.10648681682304915	0.24409072900455578	1.9990529844369245	0.11247467583044349	0.07844141090736542	1.9930142135143591	0.058429406310768886	0.1270967872174376	2.002459278106358	0.11721771303364101	0.2949489344013191	2.066324053764584	0.17825046788518498	0.3235000552314081	0.6381209023668744	0.17069765075767052	0.31060268312696243	0.38059807652778516	0.16054044897327685	0.22285232293488585	0.4923035773372636	0.32666293542698976	0.3083813053027471	0.716540175360453	0.3647212908732698	0.187465361330258	0.9292069755240319	0.22132204746107287	0.0971202115050201	1.106810740527038	0.1218119941627625	0.0821562064541453	1.2047321179247317	0.13190209430573996	0.10825015672840232	1.2251406174010677	0.16028263731179504	0.11792506692078698	1.2431236836759272	0.012714516555489153	0.30548695379494234	0.7101607916606656	-0.010717792027753636	0.2363753546357859	0.9599665343814583	0.09563088256319521	0.10004258853816211	1.1142548969324144	0.19141748179428872	0.06402678251433364	1.1497062845297326	0.18672485061951982	0.08972391116670957	1.2031689392709164	0.14028391894492148	0.07506767706198797	1.2088918877805113
85	1.4912280701754386	0.2904152302515962	0.24777223503720758	1.1561386717869837	0.2790829776331975	0.27094786600635795	1.598920550562595	0.2663231354676005	0.24797397434964225	2.0146909151155468	0.2565500101597893	0.08448559742439686	1.9925918930209552	0.31270406496933584	0.09039736667565422	1.9825278667361155	0.24767869210477755	0.3062003930199917	2.0946777131958423	0.06617268150415871	0.2651767482669286	1.1895659741881177	0.0900031631486499	0.28052172232315453	1.6145833195435213	0.10652847348614447	0.24426383888797126	1.9992280021658813	0.1115990748340755	0.07562838112014901	1.9910955978982843	0.05840137487653492	0.12702815730633393	2.002462573206642	0.11720148433469758	0.29497064472037793	2.066405850530734	0.17829433290970056	0.32348439711853394	0.6381793982101803	0.17073405330188562	0.31060991300820195	0.38056727318597827	0.16169085607716033	0.22567028170728107	0.49297780258418844	0.3279522619514624	0.3118042041435734	0.7173810458467315	0.3648234645151836	0.18712597290016414	0.9300253560689402	0.22131320173136945	0.09708868363980894	1.1068801858577386	0.12200654207578551	0.08391579870437685	1.2047435112083622	0.1318907464355179	0.10796202098576575	1.2247401971599474	0.16038299601301984	0.1172772330326629	1.2439719429184182	0.012700244885813802	0.3054712766843852	0.7100464031710707	-0.010541143245771559	0.23636026561763263	0.960830526895521	0.09564723844167149	0.09999567745275365	1.1142554917646714	0.1914179778784878	0.06420720514020203	1.1498631207315846	0.1874181931861548	0.09232229019655434	1.205190413859939	0.14046969093238212	0.07961269501049138	1.2109933803321224
86	1.5087719298245614	0.2907362740802733	0.24871227097521753	1.156853175314084	0.2791801719975433	0.2709100587566221	1.598849180113942	0.2663088271731539	0.24793605555963372	2.014615167295081	0.2565426015799958	0.08454240866015841	1.9927756937646228	0.3125934796611875	0.09012097335729159	1.982305289692626	0.24732897497043851	0.3059124823544674	2.0955509701285475	0.06573673943144226	0.26612946090813777	1.1901990953716788	0.09021387164864295	0.2807095422231346	1.6159934966917433	0.10651225724281996	0.24426843795525627	1.9992843903683368	0.11130257396079928	0.07466619894225929	1.9904818203327383	0.058394485831987204	0.12698157666092502	2.0024992223691265	0.11717794628466002	0.294986579243821	2.06650098806251	0.17839719437936152	0.3234753370007332	0.6382206264650692	0.17075995737696512	0.310618501633191	0.3805763102186796	0.16261264364900163	0.22696105681238785	0.4931836867144237	0.3289215139665516	0.31434349917846016	0.7180259429246773	0.36483721294679167	0.18714536777197088	0.9299902559179325	0.22130193514083385	0.09705829566230299	1.1069343827140712	0.12189598490974587	0.08558930667660294	1.2045562643625691	0.13178883796692437	0.10809668854338043	1.2247001320604856	0.16046575329555382	0.11709114706428253	1.2441995908788486	0.012711875059983193	0.30534352038669416	0.7103332218448086	-0.010431196158158155	0.23639250961498517	0.9597633306441509	0.09565065913781387	0.09998627097196085	1.1142718736528052	0.19151776724323036	0.06428530897337713	1.1501980880190914	0.1876562764373871	0.09324707567465454	1.205993043308078	0.14088268210206056	0.08233895270441831	1.2122747076768783
87	1.5263157894736843	0.29195148608548105	0.2515954834665846	1.157365056832853	0.27922556112434566	0.27090953000717644	1.5988818538080958	0.2663144075960367	0.24789981801386185	2.0145831213144696	0.25641420902448386	0.08448077893459219	1.9928239652553592	0.31253080043625875	0.08995903700433236	1.9821800949059887	0.24719190236327657	0.30576006498784564	2.09806907894763	0.06557250932348632	0.27164556041077126	1.1928855828620577	0.09087168357039815	0.27964145344512287	1.6171137208631183	0.10648189487998323	0.2442445424976331	1.9992751222148135	0.11138958803861627	0.07480921760511662	1.9905355195868704	0.058406999677782685	0.1270020988926948	2.002577203920841	0.11715936991776882	0.2950102347356367	2.066559159510043	0.17844404565482855	0.3234381293869677	0.6382948328228336	0.17078129528444513	0.3106227188799361	0.3806020273836822	0.16297405751630528	0.2270938257382113	0.4931770258920271	0.32931229563365755	0.3153251940632086	0.7183009530407771	0.3647595030116705	0.18752468833995922	0.9291123977503438	0.22128748807095233	0.09704454758429415	1.1069685024162337	0.12196000869353345	0.08751960671714336	1.2049724653238343	0.13173533407720817	0.10835536901793641	1.224839156146429	0.1605467586969992	0.1174069086606776	1.2438138693121499	0.012764177867286262	0.30503344213743105	0.7113067918513162	-0.010390493463720424	0.23651331729554032	0.9582104320610064	0.09565414185309716	0.10001179069096558	1.1143213279974293	0.19179418647962046	0.06418436243009787	1.1512780730775538	0.18764793878053304	0.09319856869029464	1.205994850067778	0.1411492408672852	0.08313140290101988	1.212581573750105
88	1.543859649122807	0.29371004104079396	0.25556281429423594	1.1578574157789014	0.27924156229546365	0.27096794406006275	1.5990114850835129	0.26632650156529203	0.2478971145648318	2.0146137046216417	0.256244638036361	0.08432487765141422	1.9927019013745977	0.31251327094104525	0.08989671235975244	1.982124237125619	0.24760873850863244	0.30691889846438997	2.1019415671831316	0.06581341359001748	0.2784895236293586	1.1958507612017946	0.09229512304835234	0.27644752521774224	1.616456651930567	0.10646629207298992	0.24427458279469663	1.999239112704741	0.11155567278396529	0.0751220830446717	1.9906170446474651	0.058428033121575206	0.1270806316922673	2.002638940424717	0.11715211827847906	0.295053015229903	2.0665462685328597	0.17844957876307915	0.3233882241913619	0.6384081228151964	0.1708002494410466	0.31062300679005234	0.38062602881675767	0.16301131336166402	0.22696892335582508	0.49320672737880444	0.32938900512236075	0.31543285455705755	0.7184030036667363	0.3646370930288348	0.18804637164279192	0.9279129793373972	0.221277102453186	0.09705764102013145	1.1069886414313117	0.12272602743472895	0.08938164243875316	1.205749957713565	0.13182273615591938	0.10874214894024511	1.2250794895180543	0.1606391726157713	0.11811449504878989	1.2428109564770666	0.012853788022010168	0.30463360821594165	0.7126924928309527	-0.01038581665616728	0.23667384315389955	0.9574280575420425	0.09566991006427451	0.10005143986294282	1.1144184470924945	0.19211681867542038	0.06384246538951761	1.153232872535322	0.1876383216893935	0.09297552561985127	1.2057318356831066	0.14165272010389024	0.08300693870448116	1.212082790294235
